<svg width="26" height="27" viewBox="0 0 26 27" fill="none" xmlns="http://www.w3.org/2000/svg">
<path fill-rule="evenodd" clip-rule="evenodd" d="M0.465784 4.99845C5.27901 4.93314 9.66446 3.09673 13 0.111328C16.3356 3.09672 20.721 4.93314 25.5342 4.99845C25.709 6.03968 25.8 7.10934 25.8 8.20025C25.8 16.56 20.4572 23.6719 13 26.3077C5.54279 23.6719 0.200012 16.56 0.200012 8.20025C0.200012 7.10934 0.290994 6.03968 0.465784 4.99845ZM18.9314 10.9316C19.5562 10.3067 19.5562 9.29366 18.9314 8.66883C18.3065 8.04399 17.2935 8.04399 16.6686 8.66883L11.4 13.9375L9.33138 11.8688C8.70654 11.244 7.69348 11.244 7.06864 11.8688C6.4438 12.4937 6.4438 13.5067 7.06864 14.1316L10.2686 17.3316C10.8935 17.9564 11.9065 17.9564 12.5314 17.3316L18.9314 10.9316Z" fill="white"/>
</svg>
