<svg width="138" height="137" viewBox="0 0 138 137" fill="none" xmlns="http://www.w3.org/2000/svg">
<path d="M0 0H138V68C138 106.108 107.108 137 69 137V137C30.8924 137 0 106.108 0 68V0Z" fill="#F3C748"/>
<path d="M38.0695 48.2916C40.6554 46.0788 41.6835 42.2784 41.6835 37.1992H35.982C35.982 42.5276 34.86 45.3313 30.9656 45.3313H30.4045V37.1992H24.7031V59.0109H30.4045V50.3791H31.2461C31.8384 50.3791 32.3994 50.3478 32.9591 50.2865L36.9788 59.0109H43.2113V58.6991L38.0709 48.2916H38.0695Z" fill="white"/>
<path d="M61.0773 49.2485V49.2841C61.0773 52.7742 58.8346 55.1108 55.4685 55.1108C52.1023 55.1108 49.8596 52.7742 49.8596 49.2841V49.2485H44.0329V49.2841C44.0329 55.8897 48.7689 60.5332 55.4685 60.5332C62.168 60.5332 66.904 55.8897 66.904 49.2841V49.2485H61.0773V49.2485Z" fill="white"/>
<path d="M84.621 51.0639C86.8338 49.7867 88.1723 47.544 88.1723 44.8941C88.1723 40.282 84.7449 37.1978 79.8523 37.1978H70.5669V59.0095H76.2683V52.28H79.3226L82.9992 59.0095H89.3869V58.8528L84.6196 51.0625L84.621 51.0639ZM79.5732 47.45H76.2697V42.1217H79.5732C81.3489 42.1217 82.4083 43.1184 82.4083 44.7702C82.4083 46.4219 81.3489 47.45 79.5732 47.45Z" fill="white"/>
<path d="M112.693 37.1367L103.751 46.5774L94.7774 37.1367H92.472V59.0097H98.1734V52.9651L98.0809 48.1351L103.533 53.7126H103.939L109.422 48.1351L109.299 52.9651V59.0097H115V37.1367H112.693V37.1367Z" fill="white"/>
<path d="M38.0695 75.9444C40.6554 73.7317 41.6835 69.9312 41.6835 64.8521H35.982C35.982 70.1804 34.86 72.9841 30.9656 72.9841H30.4045V64.8521H24.7031V86.6638H30.4045V78.0319H31.2461C31.8384 78.0319 32.3994 78.0006 32.9591 77.9394L36.9788 86.6638H43.2113V86.3519L38.0709 75.9444H38.0695Z" fill="white"/>
<path d="M55.4704 62.7603C48.8335 62.7603 44.1231 67.3168 44.0363 73.8242H49.863C49.9399 70.4082 52.1626 68.1811 55.4704 68.1811C58.7782 68.1811 60.9995 70.4366 61.0764 73.8242H66.9045C66.8177 67.3168 62.1073 62.7603 55.4704 62.7603V62.7603Z" fill="white"/>
<path d="M84.621 78.7168C86.8338 77.4395 88.1723 75.1968 88.1723 72.5469C88.1723 67.9348 84.7449 64.8506 79.8523 64.8506H70.5669V86.6623H76.2683V79.9328H79.3226L82.9992 86.6623H89.3869V86.5057L84.6196 78.7154L84.621 78.7168ZM79.5732 75.1029H76.2697V69.7745H79.5732C81.3489 69.7745 82.4083 70.7713 82.4083 72.423C82.4083 74.0748 81.3489 75.1029 79.5732 75.1029V75.1029Z" fill="white"/>
<path d="M112.693 64.7896L103.751 74.2302L94.7774 64.7896H92.472V86.6625H98.1734V80.6179L98.0809 75.788L103.533 81.3655H103.939L109.422 75.788L109.299 80.6179V86.6625H115V64.7896H112.693V64.7896Z" fill="white"/>
</svg>
